# xmcd CD database file
#
# Track frame offsets:
#	150
#	11108
#	21360
#	33025
#	42526
#	55628
#	65707
#	78560
#	93096
#	103751
#	115723
#	129097
#	147746
#	155557
#	171740
#
# Disc length: 2575 seconds
#
# Revision: 1
# Processed by: cddbd v1.5.2PL0 Copyright (c) Steve Scherf et al.
# Submitted via: CDex 1.78
#
DISCID=cd0a0d0f
DTITLE=Various Artist - Pure Country [CD1)
DYEAR=2010
DGENRE=Country
TTITLE0=Roger Miller  - King Of The Road
TTITLE1=Dave Dudley  - Six Days on The Road
TTITLE2=Don Gibson  - Oh Lonesome Me
TTITLE3=Charley Pride  - Kiss An Angel Good Mornin'
TTITLE4=Kenny Rogers - Ruby, Don't Take YourLove To Town
TTITLE5=Willie Nelson  - On The Road Again
TTITLE6=Lynn Anderson  - Rose Garden
TTITLE7=Loretta Lynn  - Coal Miner's Daughter
TTITLE8=Patsy Cline  - Crazy
TTITLE9=Billie Jo Spears - Misty Blue
TTITLE10=Jimmy Dean - Big Bad John
TTITLE11=Bobby Bare - Tequila Sheila
TTITLE12=Roger Miller  - Dang Me
TTITLE13=Lynn Anderson  - The Devil Went Down To Georgia
TTITLE14=Bobby Bare - Numbers
EXTD=YEAR: 2010
EXTT0=
EXTT1=
EXTT2=
EXTT3=
EXTT4=
EXTT5=
EXTT6=
EXTT7=
EXTT8=
EXTT9=
EXTT10=
EXTT11=
EXTT12=
EXTT13=
EXTT14=
PLAYORDER=
